<svg width="682" height="742" viewBox="0 0 682 742" fill="none" xmlns="http://www.w3.org/2000/svg">
<path d="M331.566 633.51L24.7979 436.138C14.9857 430.202 6.67257 420.407 16.2122 413.878L324.07 220.661C328.704 217.545 335.654 215.467 340.424 218.435L662.455 421.891C672.267 428.124 674.039 445.339 664.227 451.571L372.041 633.213C359.639 641.078 344.24 641.227 331.566 633.51Z" fill="#FFB400"/>
<path opacity="0.63" d="M337.891 536.763C336.801 535.13 291.828 523.852 290.602 522.368L226.823 553.235L234.999 558.726C243.04 564.959 271.25 581.431 279.427 587.516L314.451 565.256C314.178 563.03 333.939 542.55 337.891 536.763Z" fill="url(#paint0_linear_9_11)"/>
<path d="M344.16 376.936C351.656 381.24 356.153 389.995 355.608 399.196C355.063 415.52 330.26 399.641 323.582 385.692C316.904 371.742 315.95 391.628 315.95 391.628" fill="#297600"/>
<path d="M321.946 371.148C326.58 371 331.213 371.742 335.711 373.226C338.709 373.968 341.571 375.304 344.296 376.936C342.797 378.123 341.026 379.014 339.39 379.756C336.256 381.091 332.985 382.872 331.35 385.988C330.941 386.73 330.668 387.621 330.396 388.511C328.897 393.854 330.259 400.383 328.215 405.874C326.035 411.513 321.946 416.114 316.086 416.41C309.136 416.856 305.865 409.584 304.502 403.203C303.14 396.822 301.232 388.214 303.412 381.685C306.002 374.265 315.269 371.445 321.946 371.148Z" fill="#8FDB5E"/>
<path d="M312.679 396.673C315.541 386.285 321.81 376.491 330.941 371.89H331.214L331.622 372.039L333.258 372.484C322.628 376.788 315.95 388.214 313.224 399.79C309.681 414.63 310.908 430.805 310.908 445.942C310.908 446.387 310.499 446.684 310.09 446.684C309.817 446.684 309.545 446.387 309.409 445.942C309.681 429.915 308.182 412.552 312.679 396.673Z" fill="#297600"/>
<path d="M264.436 510.793C265.662 511.09 286.922 504.56 286.922 504.56V498.921L264.436 501.444" fill="#5C2D1D"/>
<path d="M287.059 507.973V519.548C287.059 521.181 288.285 522.368 289.648 522.368C291.011 522.368 292.237 521.032 292.237 519.548V507.676C290.466 507.825 288.694 507.825 287.059 507.973Z" fill="#5C2D1D"/>
<path d="M267.162 444.013V498.03C267.162 498.03 273.431 516.284 300.687 515.096C327.943 513.909 334.212 499.96 334.893 497.734C335.575 495.508 334.893 442.826 334.893 442.826" fill="#68E1FD"/>
<path d="M301.096 464.344C319.837 464.344 335.029 454.71 335.029 442.826C335.029 430.941 319.837 421.308 301.096 421.308C282.354 421.308 267.162 430.941 267.162 442.826C267.162 454.71 282.354 464.344 301.096 464.344Z" fill="#68E1FD"/>
<path opacity="0.43" d="M301.096 464.344C319.837 464.344 335.029 454.71 335.029 442.826C335.029 430.941 319.837 421.308 301.096 421.308C282.354 421.308 267.162 430.941 267.162 442.826C267.162 454.71 282.354 464.344 301.096 464.344Z" fill="white"/>
<path d="M301.095 460.782C317.579 460.782 330.941 452.278 330.941 441.787C330.941 431.296 317.579 422.792 301.095 422.792C284.612 422.792 271.25 431.296 271.25 441.787C271.25 452.278 284.612 460.782 301.095 460.782Z" fill="#5C2D1D"/>
<path d="M309.545 482.003H311.18C312.679 482.003 313.77 483.339 313.77 484.823V563.178C313.77 564.81 312.543 565.998 311.18 565.998H309.545C308.046 565.998 306.956 564.662 306.956 563.178V484.823C306.956 483.19 308.046 482.003 309.545 482.003Z" fill="#5C2D1D"/>
<path d="M336.665 453.362H337.891C338.981 453.362 339.935 454.401 339.935 455.588V535.279C339.935 536.466 338.981 537.505 337.891 537.505H336.665C335.574 537.505 334.62 536.466 334.62 535.279V455.588C334.62 454.401 335.438 453.362 336.665 453.362Z" fill="#5C2D1D"/>
<path d="M263.891 465.828H265.117C266.208 465.828 267.162 466.866 267.162 468.054V547.744C267.162 548.932 266.208 549.97 265.117 549.97H263.891C262.801 549.97 261.847 548.932 261.847 547.744V468.054C261.847 466.866 262.801 465.828 263.891 465.828Z" fill="#5C2D1D"/>
<path d="M255.987 359.276C248.491 363.58 243.994 372.336 244.539 381.536C245.084 397.86 269.887 381.982 276.565 368.032C283.243 354.082 284.197 373.968 284.197 373.968" fill="#297600"/>
<path d="M278.337 353.637C273.703 353.489 269.07 354.231 264.572 355.715C261.574 356.457 258.712 357.792 255.987 359.425C257.486 360.612 259.257 361.502 260.893 362.244C264.027 363.58 267.298 365.361 268.933 368.477C269.342 369.219 269.615 370.11 269.887 371C271.386 376.342 270.023 382.872 272.068 388.363C274.248 394.002 278.337 398.602 284.197 398.899C291.147 399.344 294.418 392.073 295.781 385.692C297.143 379.31 299.051 370.703 296.871 364.174C294.281 356.605 284.878 353.934 278.337 353.637Z" fill="#8FDB5E"/>
<path d="M287.604 379.162C284.742 368.774 278.473 358.98 269.342 354.379H269.069L268.661 354.528C268.116 354.676 267.57 354.824 267.025 354.973C277.655 359.276 284.333 370.703 287.059 382.278C290.602 397.118 289.375 413.294 289.375 428.431C289.375 428.876 289.784 429.173 290.193 429.173C290.466 429.173 290.738 428.876 290.874 428.431C290.602 412.404 291.965 394.892 287.604 379.162Z" fill="#297600"/>
<path d="M325.217 408.99C330.123 411.81 333.121 417.449 332.713 423.534C332.304 434.218 316.086 423.83 311.725 414.778C307.364 405.726 306.683 418.636 306.683 418.636" fill="#297600"/>
<path d="M310.635 405.28C313.633 405.28 316.768 405.726 319.63 406.616C321.538 407.061 323.445 407.952 325.217 408.99C324.127 409.732 323.173 410.326 321.946 410.92C319.766 411.662 317.994 412.997 316.631 415.075C316.359 415.52 316.223 416.114 316.086 416.707C315.132 420.269 315.95 424.572 314.587 428.134C313.224 431.696 310.499 434.812 306.683 435.109C302.049 435.406 300.005 430.657 299.051 426.502C298.097 422.346 296.871 416.707 298.37 412.404C300.141 407.358 306.274 405.429 310.635 405.28Z" fill="#297600"/>
<path d="M304.502 422.05C306.41 415.223 310.499 408.842 316.495 405.874H316.768L317.04 406.022C317.449 406.171 317.722 406.171 318.131 406.319C311.18 409.139 306.819 416.559 305.048 424.127C302.731 433.922 303.548 444.458 303.548 454.401C303.548 454.698 303.276 454.846 303.003 454.846C302.731 454.846 302.595 454.549 302.595 454.401C302.595 443.716 301.641 432.289 304.502 422.05Z" fill="#297600"/>
<path d="M283.106 418.34C285.014 417.449 287.74 414.63 290.057 414.63C290.874 417.152 291.283 419.675 291.42 422.198C291.828 426.353 291.965 430.657 291.692 434.812C291.692 435.702 291.556 436.741 291.42 437.632C291.42 437.928 291.283 438.225 291.283 438.374V448.168C291.283 448.316 291.147 448.465 291.011 448.465C290.874 448.465 290.738 448.316 290.738 448.168V438.67C289.784 438.374 288.966 437.928 288.149 437.335C286.377 436.148 285.151 434.367 284.469 432.289C282.97 427.837 283.924 422.792 282.561 418.34H283.106Z" fill="#297600"/>
<path d="M287.059 410.92C288.149 411.662 289.103 412.7 289.648 413.888C289.784 414.184 289.92 414.481 290.057 414.778L290.193 414.926C290.329 415.372 290.466 415.965 290.602 416.41C290.329 415.965 290.057 415.668 289.648 415.52C289.103 415.223 288.558 415.223 288.149 415.372C287.604 415.52 287.195 415.817 286.786 416.114C286.105 416.559 285.559 417.004 284.878 417.449C281.88 419.527 277.791 419.824 275.475 416.707L275.338 416.41C274.793 414.481 280.244 406.764 287.059 410.92Z" fill="#297600"/>
<path d="M276.701 418.191L276.292 417.894C276.292 417.746 276.292 417.746 276.429 417.598C278.2 415.372 280.381 413.591 282.698 412.552C284.469 411.81 286.513 411.662 288.285 411.958C288.421 412.255 288.694 412.552 288.83 412.7C286.65 412.107 284.333 412.255 282.289 413.294C280.244 414.63 278.337 416.262 276.701 418.191Z" fill="#297600"/>
<path opacity="0.63" d="M508.923 471.764L450.868 473.99L386.271 510.496C396.356 518.213 426.065 542.402 436.422 549.97L497.203 507.825C496.522 504.263 509.332 475.325 508.923 471.764Z" fill="url(#paint1_linear_9_11)"/>
<path d="M428.654 286.264C425.656 276.172 415.844 269.049 408.485 279.14C406.168 282.257 410.256 286.709 412.573 283.592C418.706 275.134 423.748 287.006 424.157 293.238C424.43 298.284 423.339 304.665 418.433 306.594C415.026 307.93 416.525 314.014 419.932 312.679C429.608 308.82 431.516 296.058 428.654 286.264Z" fill="#606060"/>
<path d="M408.621 274.985C408.621 274.985 428.382 312.234 425.52 327.222C422.658 342.21 402.761 350.224 388.86 347.701C374.96 345.178 375.641 298.878 375.641 298.878" fill="#297600"/>
<path d="M447.597 258.216C447.597 258.216 433.288 272.462 429.063 272.462C424.838 272.462 415.299 262.816 412.846 266.378C407.939 273.501 423.067 272.462 421.159 275.876C419.251 279.289 412.028 281.96 413.8 287.451C415.571 292.942 424.021 300.955 428.382 298.284C432.743 295.613 433.56 287.748 438.603 284.928C443.645 282.108 478.805 259.7 478.805 259.7" fill="#FFC388"/>
<path d="M354.926 244.563C356.97 241.595 359.151 238.924 361.604 236.401C359.015 238.776 356.562 241.298 354.381 244.266C352.064 247.086 348.248 242.782 350.565 239.814L351.792 238.479C350.293 238.182 349.202 236.401 349.611 234.769C349.748 234.175 350.02 233.73 350.293 233.285C355.744 227.2 362.149 222.6 369.372 219.484C367.464 217.258 365.829 214.883 364.193 212.212C363.921 211.767 363.784 211.322 363.784 210.728C362.83 208.205 366.238 205.386 368.554 207.612C371.961 210.876 374.551 214.883 377.821 218C378.366 218.593 379.048 219.038 379.729 219.632C384.635 220.374 389.405 221.116 394.311 221.858C397.718 222.452 396.356 227.942 392.949 227.646C392.949 228.388 392.812 229.13 392.54 229.723C392.812 229.723 392.949 229.872 393.221 229.872C394.039 230.168 394.72 230.91 394.993 231.801H395.538C399.081 232.246 398.945 238.182 395.402 237.885L394.175 237.737C393.766 239.072 392.54 239.814 391.449 239.369C391.313 239.369 391.177 239.221 391.177 239.221C387.225 237.44 383.273 237.588 379.184 237.885L377.821 238.034C374.823 239.221 371.961 240.853 369.508 242.782C368.009 244.86 366.646 247.086 365.284 249.312C363.376 252.428 359.015 249.609 360.514 246.492C360.241 246.938 359.832 247.383 359.56 247.828C357.379 250.796 352.746 247.68 354.926 244.563Z" fill="#FFC388"/>
<path d="M350.974 238.034C353.564 235.214 356.289 232.543 359.151 230.168C359.832 229.575 360.786 230.762 360.105 231.356C357.107 233.73 354.381 236.401 351.928 239.221C351.247 239.963 350.293 238.776 350.974 238.034Z" fill="#5C2D1D"/>
<path d="M353.972 243.228C356.562 240.111 359.56 237.292 362.558 234.62C363.239 234.027 364.193 235.066 363.512 235.808C360.377 238.479 357.516 241.298 354.926 244.415C354.381 245.008 353.427 243.97 353.972 243.228Z" fill="#5C2D1D"/>
<path d="M367.328 234.175C369.917 229.872 374.142 228.091 378.639 227.646C379.593 227.497 379.457 229.13 378.639 229.13C374.551 229.575 370.735 231.059 368.554 234.917C368.009 235.808 366.783 235.066 367.328 234.175Z" fill="#5C2D1D"/>
<path d="M365.284 235.362C363.921 232.246 362.967 228.536 364.602 225.271C365.011 224.381 366.238 225.271 365.829 226.013C364.466 228.833 365.284 231.949 366.51 234.62C367.055 235.659 365.693 236.253 365.284 235.362Z" fill="#5C2D1D"/>
<path d="M358.742 246.196C360.105 243.228 362.013 240.408 364.193 238.034C364.875 237.292 365.829 238.479 365.147 239.221C362.967 241.595 361.195 244.266 359.832 247.086C359.56 247.828 358.333 247.086 358.742 246.196Z" fill="#5C2D1D"/>
<path d="M453.73 158.491C453.73 158.491 433.696 199.301 427.291 204.347C420.886 209.392 380.547 218.742 380.547 218.742L382.591 244.86C382.591 244.86 424.974 242.486 441.328 233.285C452.231 226.904 462.315 219.038 471.31 209.838" fill="#68E1FD"/>
<path opacity="0.27" d="M453.73 158.491C453.73 158.491 433.696 199.301 427.291 204.347C420.886 209.392 380.547 218.742 380.547 218.742L382.591 244.86C382.591 244.86 424.974 242.486 441.328 233.285C452.231 226.904 462.315 219.038 471.31 209.838" fill="#606060"/>
<path d="M491.752 452.472C491.752 452.472 493.524 472.06 491.48 473.396C489.435 474.732 477.17 495.211 476.489 498.327C474.036 508.715 491.48 511.683 497.34 507.676C503.2 503.67 512.194 483.932 512.603 479.184C513.012 474.435 516.01 444.606 516.01 444.606" fill="#5C2D1D"/>
<path d="M464.905 437.483C464.905 437.483 466.676 457.072 464.632 458.556C462.588 460.04 441.328 476.216 440.374 479.184C437.512 488.83 455.093 490.907 460.953 487.049C466.813 483.19 485.211 469.241 485.619 464.492C486.028 459.743 489.026 429.915 489.026 429.915" fill="#5C2D1D"/>
<path d="M520.916 242.634C520.916 242.634 533.727 250.499 533.454 270.385C533.181 290.27 527.594 462.266 515.874 461.672C504.154 461.079 497.203 463.453 489.98 447.278C489.98 447.278 470.765 453.807 463.269 437.335C463.269 437.335 462.452 273.353 471.991 249.312C481.531 225.271 520.916 242.634 520.916 242.634Z" fill="#FFC8C5"/>
<path d="M490.934 150.774C492.433 151.071 502.654 158.343 510.968 166.208C519.281 174.073 533.863 251.241 525.686 255.248C517.509 259.255 487.391 269.494 473.354 258.661C459.317 247.828 449.232 165.021 453.866 158.343C464.496 143.058 476.625 148.697 476.625 148.697" fill="#68E1FD"/>
<path d="M487.255 291.458C487.255 289.38 490.253 289.083 490.253 291.161C489.435 343.249 488.618 395.338 487.8 447.278C487.8 449.355 484.802 449.652 484.938 447.574L487.255 291.458Z" fill="#5C2D1D"/>
<path d="M487.527 142.019V158.343C487.527 158.343 484.938 164.427 474.99 164.427C471.991 164.427 469.402 162.053 468.857 158.788L467.085 145.135" fill="#FFC388"/>
<path opacity="0.27" d="M487.527 142.019V158.343C487.527 158.343 484.938 164.427 474.99 164.427C471.991 164.427 469.402 162.053 468.857 158.788L467.085 145.135" fill="#606060"/>
<path d="M457.682 128.218C457.682 128.218 457.818 155.672 467.494 159.382C477.17 163.092 485.619 151.516 487.8 145.135C489.98 138.754 489.572 108.629 472.945 112.932C456.319 117.236 457.682 128.218 457.682 128.218Z" fill="#FFC388"/>
<path d="M455.093 110.41C461.634 106.848 468.993 100.022 482.212 107.145C495.432 114.268 499.52 139.941 485.619 147.806L484.529 137.715C485.619 135.786 485.892 133.412 485.483 131.186C485.074 128.366 482.485 126.437 479.896 127.03C479.623 127.03 479.487 127.179 479.214 127.179C477.579 126.14 476.08 124.656 474.99 123.024C471.855 117.978 469.402 121.094 466.268 126.288C463.133 131.482 455.638 134.005 451.413 131.631C447.188 129.256 446.779 115.01 455.093 110.41Z" fill="#5C2D1D"/>
<path d="M510.968 166.356C510.968 166.356 513.829 223.49 508.242 231.504C502.654 239.518 452.639 280.476 452.639 280.476C452.639 280.476 439.693 266.23 440.102 261.036C440.51 255.842 484.802 216.812 484.802 216.812C484.802 216.812 478.26 174.222 482.894 166.356C487.527 158.491 502.382 155.82 510.968 166.356Z" fill="#68E1FD"/>
<path opacity="0.27" d="M510.968 166.356C510.968 166.356 513.829 223.49 508.242 231.504C502.654 239.518 452.639 280.476 452.639 280.476C452.639 280.476 439.693 266.23 440.102 261.036C440.51 255.842 484.802 216.812 484.802 216.812C484.802 216.812 478.26 174.222 482.894 166.356C487.527 158.491 502.382 155.82 510.968 166.356Z" fill="#606060"/>
<path d="M400.399 299.054C409.008 290.85 412.651 280.049 408.537 274.93C404.423 269.811 394.109 272.312 385.5 280.517C376.891 288.722 373.247 299.523 377.361 304.641C381.476 309.76 391.79 307.259 400.399 299.054Z" fill="#8FDB5E"/>
<path d="M390.359 330.932L366.374 341.172L363.921 330.932L390.359 311.492C390.359 311.492 402.624 325.738 390.359 330.932Z" fill="#8FDB5E"/>
<path d="M365.555 347.287C369.281 345.322 370.546 339.782 368.381 334.914C366.215 330.046 361.44 327.692 357.714 329.657C353.988 331.622 352.723 337.161 354.889 342.03C357.054 346.898 361.83 349.252 365.555 347.287Z" fill="#606060"/>
<path d="M355.471 348.74C354.517 348.888 353.7 349.779 353.836 350.818C353.972 351.708 354.654 352.45 355.471 352.598C356.425 352.45 357.243 351.56 357.107 350.521C356.97 349.63 356.289 348.888 355.471 348.74Z" fill="white"/>
<path d="M347.431 360.612C346.477 360.76 345.659 361.651 345.795 362.69C345.932 363.58 346.613 364.322 347.431 364.47C348.385 364.322 349.202 363.432 349.066 362.393C348.93 361.502 348.248 360.76 347.431 360.612Z" fill="white"/>
<path d="M341.843 375.304C340.889 375.452 340.072 376.342 340.208 377.381C340.344 378.272 341.026 379.014 341.843 379.162C342.797 379.014 343.615 378.123 343.479 377.084C343.479 376.194 342.797 375.452 341.843 375.304Z" fill="white"/>
<path d="M323.173 371.297C322.219 371.445 321.401 372.336 321.537 373.374C321.674 374.265 322.355 375.007 323.173 375.155C324.127 375.007 324.945 374.116 324.808 373.078C324.672 372.187 323.991 371.445 323.173 371.297Z" fill="white"/>
<path d="M335.847 369.664C334.893 369.813 334.075 370.703 334.212 371.742C334.348 372.632 335.029 373.374 335.847 373.523C336.801 373.374 337.619 372.484 337.482 371.445C337.346 370.406 336.665 369.664 335.847 369.664Z" fill="white"/>
<path d="M334.757 358.831C333.803 358.98 332.985 359.87 333.121 360.909C333.258 361.799 333.939 362.541 334.757 362.69C335.711 362.541 336.528 361.651 336.392 360.612C336.256 359.573 335.574 358.831 334.757 358.831Z" fill="white"/>
<path d="M340.072 351.708C339.118 351.856 338.3 352.747 338.436 353.786C338.573 354.676 339.254 355.418 340.072 355.566C341.026 355.418 341.843 354.528 341.707 353.489C341.571 352.598 340.889 351.856 340.072 351.708Z" fill="white"/>
<path d="M350.429 341.172C349.475 341.32 348.657 342.21 348.794 343.249C348.93 344.14 349.611 344.882 350.429 345.03C351.383 344.882 352.201 343.991 352.064 342.952C351.928 342.062 351.247 341.32 350.429 341.172Z" fill="white"/>
<path d="M323.445 361.354C322.491 361.502 321.674 362.393 321.81 363.432C321.946 364.322 322.628 365.064 323.445 365.212C324.399 365.064 325.217 364.174 325.081 363.135C324.945 362.096 324.263 361.354 323.445 361.354Z" fill="white"/>
<path d="M312.134 383.614C311.18 383.762 310.363 384.653 310.499 385.692C310.635 386.582 311.317 387.324 312.134 387.472C313.088 387.324 313.906 386.434 313.77 385.395C313.633 384.504 312.952 383.762 312.134 383.614Z" fill="white"/>
<path d="M321.538 396.97C320.584 397.118 319.766 398.009 319.902 399.048C320.039 399.938 320.72 400.68 321.538 400.828C322.492 400.68 323.309 399.79 323.173 398.751C323.173 397.86 322.492 397.118 321.538 396.97Z" fill="white"/>
<path d="M329.442 385.098C328.488 385.246 327.67 386.137 327.807 387.176C327.943 388.066 328.624 388.808 329.442 388.956C330.396 388.808 331.214 387.918 331.077 386.879C330.941 385.988 330.26 385.246 329.442 385.098Z" fill="white"/>
<path d="M337.21 398.306C336.256 398.454 335.438 399.344 335.574 400.383C335.711 401.274 336.392 402.016 337.21 402.164C338.164 402.016 338.981 401.125 338.845 400.086C338.709 399.048 338.028 398.306 337.21 398.306Z" fill="white"/>
<path d="M314.451 412.255C313.497 412.404 312.679 413.294 312.816 414.333C312.952 415.223 313.633 415.965 314.451 416.114C315.405 415.965 316.223 415.075 316.086 414.036C315.95 413.146 315.269 412.404 314.451 412.255Z" fill="white"/>
<path d="M304.502 417.004C303.548 417.152 302.731 418.043 302.867 419.082C303.003 419.972 303.685 420.714 304.502 420.862C305.456 420.714 306.274 419.824 306.138 418.785C306.002 417.894 305.32 417.152 304.502 417.004Z" fill="white"/>
<path d="M308.455 397.267C307.501 397.415 306.683 398.306 306.819 399.344C306.956 400.235 307.637 400.977 308.455 401.125C309.409 400.977 310.226 400.086 310.09 399.048C309.954 398.009 309.272 397.267 308.455 397.267Z" fill="white"/>
<path d="M296.189 400.977C295.235 401.125 294.418 402.016 294.554 403.054C294.69 403.945 295.372 404.687 296.189 404.835C297.143 404.687 297.961 403.796 297.825 402.758C297.688 401.867 297.007 401.125 296.189 400.977Z" fill="white"/>
<path d="M308.591 372.632C307.637 372.781 306.819 373.671 306.955 374.71C307.092 375.6 307.773 376.342 308.591 376.491C309.545 376.342 310.362 375.452 310.226 374.413C310.09 373.374 309.409 372.632 308.591 372.632Z" fill="white"/>
<path d="M300.141 387.176C299.187 387.324 298.37 388.214 298.506 389.253C298.642 390.144 299.324 390.886 300.141 391.034C301.095 390.886 301.913 389.995 301.777 388.956C301.64 388.066 300.959 387.324 300.141 387.176Z" fill="white"/>
<path d="M115.754 408.545C117.253 408.842 143.691 400.828 143.691 400.828V393.705L115.754 396.97" fill="#5C2D1D"/>
<path d="M143.691 405.132V419.527C143.828 421.456 145.327 422.94 147.098 422.792C148.734 422.643 149.96 421.308 150.096 419.527V404.687C148.052 404.835 145.872 404.984 143.691 405.132Z" fill="#5C2D1D"/>
<path d="M119.161 325.59V392.666C119.161 392.666 126.929 415.372 160.726 413.739C194.524 412.107 202.292 395.041 203.246 392.221C204.2 389.402 203.246 323.957 203.246 323.957" fill="#68E1FD"/>
<path d="M161.271 350.818C184.529 350.818 203.382 338.858 203.382 324.106C203.382 309.353 184.529 297.394 161.271 297.394C138.014 297.394 119.161 309.353 119.161 324.106C119.161 338.858 138.014 350.818 161.271 350.818Z" fill="#68E1FD"/>
<path opacity="0.43" d="M161.271 350.818C184.529 350.818 203.382 338.858 203.382 324.106C203.382 309.353 184.529 297.394 161.271 297.394C138.014 297.394 119.161 309.353 119.161 324.106C119.161 338.858 138.014 350.818 161.271 350.818Z" fill="white"/>
<path d="M161.271 346.514C181.744 346.514 198.34 335.95 198.34 322.918C198.34 309.887 181.744 299.323 161.271 299.323C140.799 299.323 124.203 309.887 124.203 322.918C124.203 335.95 140.799 346.514 161.271 346.514Z" fill="#5C2D1D"/>
<path d="M171.084 372.781H174.354C175.854 372.781 176.944 374.116 176.944 375.6V474.435C176.944 476.067 175.717 477.254 174.354 477.254H171.084C169.585 477.254 168.494 475.919 168.494 474.435V375.6C168.494 373.968 169.585 372.781 171.084 372.781Z" fill="#5C2D1D"/>
<path d="M204.881 337.313H207.334C208.425 337.313 209.379 338.352 209.379 339.539V439.709C209.379 440.896 208.425 441.935 207.334 441.935H204.881C203.791 441.935 202.837 440.896 202.837 439.709V339.539C202.837 338.204 203.791 337.313 204.881 337.313Z" fill="#5C2D1D"/>
<path d="M114.527 352.747H116.98C118.071 352.747 119.025 353.786 119.025 354.973V455.143C119.025 456.33 118.071 457.369 116.98 457.369H114.527C113.437 457.369 112.483 456.33 112.483 455.143V354.973C112.483 353.786 113.437 352.747 114.527 352.747Z" fill="#5C2D1D"/>
<path d="M99.809 219.484C105.124 219.187 110.439 220.226 115.345 222.748C120.524 225.568 123.931 230.762 126.247 236.401C128.564 242.04 129.654 249.609 134.697 253.17C136.605 254.358 138.376 255.842 139.603 257.771C141.783 261.332 143.01 266.823 141.102 270.682C138.921 275.43 129.654 278.398 125.566 277.508" fill="#8FDB5E"/>
<path d="M95.7205 220.077C94.2214 220.226 92.5861 220.522 91.087 220.968C80.8659 224.529 71.8714 233.73 69.2821 244.86C67.783 251.538 67.6467 258.513 69.1458 265.191C70.3723 270.533 73.2342 279.882 79.3668 280.328C87.5437 280.921 90.133 272.462 92.7223 265.636C95.1754 259.106 98.0373 251.241 104.579 248.57C113.573 244.86 120.251 249.906 123.522 253.17L95.7205 220.077Z" fill="#297600"/>
<path d="M133.198 256.287C128.292 249.312 124.203 241.744 119.297 234.62C116.571 230.465 113.573 225.42 109.757 222.006C98.4461 216.07 84.0004 221.561 75.6873 232.098C76.7775 232.394 78.4129 232.543 79.3668 232.84C84.4092 234.917 88.9065 238.33 92.4498 242.931C97.4922 249.015 101.444 256.435 105.805 262.816C113.028 273.353 122.568 281.96 134.969 275.579C142.874 271.72 136.741 261.184 133.198 256.287Z" fill="#8FDB5E"/>
<path d="M173.401 166.653C173.401 166.653 199.021 164.427 198.612 208.65C198.204 252.874 159.772 223.787 168.222 197.224" fill="#297600"/>
<path d="M169.721 210.134C169.448 196.63 183.349 186.836 195.069 185.203C193.161 177.486 186.075 165.021 171.901 165.466C154.321 165.911 141.238 185.352 138.24 208.205C135.242 231.059 151.187 245.602 151.187 245.602L159.636 253.467C175.036 246.789 169.312 222.452 169.721 210.134Z" fill="#8FDB5E"/>
<path d="M239.497 241.744C239.088 233.433 237.043 225.123 233.5 217.703C230.229 210.431 224.097 205.386 216.874 203.605L202.428 233.878C202.428 233.878 223.961 192.92 215.102 224.381C206.244 255.842 235.272 291.309 239.224 244.266C239.36 243.524 239.36 242.634 239.497 241.744Z" fill="#297600"/>
<path d="M165.769 266.23C161.817 255.842 154.457 247.234 152.141 236.104C149.143 220.819 154.866 204.94 166.586 195.888C168.767 194.256 166.586 190.249 164.542 192.03C146.553 206.276 143.01 230.614 153.504 251.241C156.774 257.622 160.999 263.855 163.043 270.83C165.632 280.031 162.771 286.709 158.818 293.684C158.818 286.709 156.638 279.14 152.55 275.134C147.916 270.385 140.966 269.643 135.242 267.565C124.067 263.41 114.255 256.435 112.347 242.931C111.938 240.111 107.986 241.298 108.258 244.118C109.894 255.248 116.571 263.262 125.566 268.307C130.881 271.275 136.605 272.611 142.328 274.688C147.371 276.766 151.323 281.07 153.367 286.412C156.093 293.09 154.185 297.69 152.686 304.072C150.778 312.53 147.643 319.654 152.958 327.667C154.457 330.042 158.137 327.667 156.502 325.441C148.052 312.827 161.544 300.658 166.041 289.825C169.176 281.663 168.767 273.946 165.769 266.23Z" fill="#297600"/>
<path d="M217.692 238.33C199.975 234.917 187.846 249.906 188.8 268.604C189.209 273.353 190.027 277.953 191.253 282.554C192.071 285.818 194.115 291.309 193.57 294.574C192.48 300.807 188.255 304.962 183.349 307.485C175.581 311.492 170.675 316.24 168.358 325.441C168.086 326.628 168.767 327.964 169.857 328.261C170.947 328.558 172.174 327.816 172.446 326.628C176.535 310.304 197.658 312.53 197.795 294.574C197.795 285.67 193.57 277.508 193.025 268.604C192.207 253.17 201.338 239.666 216.601 242.634C219.191 243.228 220.281 238.924 217.692 238.33Z" fill="#297600"/>
<path d="M233.5 217.703C226.55 203.902 214.148 200.637 201.883 204.792C200.248 205.534 198.476 206.424 196.977 207.463C166.041 232.394 187.982 288.638 192.752 288.193C208.561 286.709 206.925 276.618 212.104 248.422C215.784 228.536 231.047 225.865 236.635 225.865C235.817 223.045 234.727 220.374 233.5 217.703Z" fill="#8FDB5E"/>
<path d="M226.823 208.502C216.329 206.721 205.835 212.212 200.52 222.303C189.209 242.931 191.798 266.823 193.297 289.528C193.434 292.348 197.658 292.496 197.522 289.528C196.432 273.056 194.251 256.88 198.34 240.853C200.384 232.988 202.701 224.232 208.561 218.445C215.375 211.915 224.097 211.322 231.865 214.883C231.32 214.141 230.775 213.251 230.23 212.509C229.003 211.173 227.913 209.838 226.823 208.502Z" fill="#297600"/>
<path opacity="0.63" d="M206.108 438.077C204.745 436.148 148.461 422.05 146.962 420.12L67.3741 458.704L77.5952 465.531C87.68 473.248 122.977 493.875 133.198 501.444L177.08 473.544C176.399 470.873 201.065 445.2 206.108 438.077Z" fill="url(#paint2_linear_9_11)"/>
<defs>
<linearGradient id="paint0_linear_9_11" x1="260.917" y1="569.498" x2="320.504" y2="517.293" gradientUnits="userSpaceOnUse">
<stop stop-color="#FFB400" stop-opacity="0"/>
<stop offset="1" stop-color="#F15A24"/>
</linearGradient>
<linearGradient id="paint1_linear_9_11" x1="412.693" y1="531.523" x2="460.996" y2="500.12" gradientUnits="userSpaceOnUse">
<stop stop-color="#FFB400" stop-opacity="0"/>
<stop offset="1" stop-color="#F15A24"/>
</linearGradient>
<linearGradient id="paint2_linear_9_11" x1="109.818" y1="478.984" x2="184.326" y2="413.685" gradientUnits="userSpaceOnUse">
<stop stop-color="#FFB400" stop-opacity="0"/>
<stop offset="1" stop-color="#F15A24"/>
</linearGradient>
</defs>
</svg>
